<?xml version="1.0" encoding="UTF-8" standalone="no"?><!-- Generator: Gravit.io --><svg xmlns="http://www.w3.org/2000/svg" xmlns:xlink="http://www.w3.org/1999/xlink" style="isolation:isolate" viewBox="0 0 386.741 73.069" width="386.741pt" height="73.069pt"><defs><clipPath id="_clipPath_YsbGVyvTdH5HUajDswTbV3offbcKZhiw"><rect width="386.741" height="73.069"/></clipPath></defs><g clip-path="url(#_clipPath_YsbGVyvTdH5HUajDswTbV3offbcKZhiw)"><g/><g><path d=" M 262.661 45.294 L 262.661 18.774 L 271.601 17.334 L 271.601 26.634 L 282.341 26.634 L 282.341 34.074 L 271.601 34.074 L 271.601 45.174 L 271.601 45.174 Q 271.601 47.994 272.591 49.674 L 272.591 49.674 L 272.591 49.674 Q 273.581 51.354 276.581 51.354 L 276.581 51.354 L 276.581 51.354 Q 278.021 51.354 279.551 51.084 L 279.551 51.084 L 279.551 51.084 Q 281.081 50.814 282.341 50.334 L 282.341 50.334 L 283.601 57.294 L 283.601 57.294 Q 281.981 57.954 280.001 58.434 L 280.001 58.434 L 280.001 58.434 Q 278.021 58.914 275.141 58.914 L 275.141 58.914 L 275.141 58.914 Q 271.481 58.914 269.081 57.924 L 269.081 57.924 L 269.081 57.924 Q 266.681 56.934 265.241 55.164 L 265.241 55.164 L 265.241 55.164 Q 263.801 53.394 263.231 50.874 L 263.231 50.874 L 263.231 50.874 Q 262.661 48.354 262.661 45.294 L 262.661 45.294 L 262.661 45.294 Z  M 286.901 42.654 L 286.901 42.654 L 286.901 42.654 Q 286.901 38.454 288.191 35.304 L 288.191 35.304 L 288.191 35.304 Q 289.481 32.154 291.581 30.054 L 291.581 30.054 L 291.581 30.054 Q 293.681 27.954 296.411 26.874 L 296.411 26.874 L 296.411 26.874 Q 299.141 25.794 302.021 25.794 L 302.021 25.794 L 302.021 25.794 Q 308.741 25.794 312.641 29.904 L 312.641 29.904 L 312.641 29.904 Q 316.541 34.014 316.541 41.994 L 316.541 41.994 L 316.541 41.994 Q 316.541 42.774 316.481 43.704 L 316.481 43.704 L 316.481 43.704 Q 316.421 44.634 316.361 45.354 L 316.361 45.354 L 296.081 45.354 L 296.081 45.354 Q 296.381 48.114 298.661 49.734 L 298.661 49.734 L 298.661 49.734 Q 300.941 51.354 304.781 51.354 L 304.781 51.354 L 304.781 51.354 Q 307.241 51.354 309.611 50.904 L 309.611 50.904 L 309.611 50.904 Q 311.981 50.454 313.481 49.794 L 313.481 49.794 L 314.681 57.054 L 314.681 57.054 Q 313.961 57.414 312.761 57.774 L 312.761 57.774 L 312.761 57.774 Q 311.561 58.134 310.091 58.404 L 310.091 58.404 L 310.091 58.404 Q 308.621 58.674 306.941 58.854 L 306.941 58.854 L 306.941 58.854 Q 305.261 59.034 303.581 59.034 L 303.581 59.034 L 303.581 59.034 Q 299.321 59.034 296.171 57.774 L 296.171 57.774 L 296.171 57.774 Q 293.021 56.514 290.951 54.324 L 290.951 54.324 L 290.951 54.324 Q 288.881 52.134 287.891 49.134 L 287.891 49.134 L 287.891 49.134 Q 286.901 46.134 286.901 42.654 Z  M 296.081 39.234 L 307.901 39.234 L 307.901 39.234 Q 307.841 38.094 307.511 37.014 L 307.511 37.014 L 307.511 37.014 Q 307.181 35.934 306.491 35.094 L 306.491 35.094 L 306.491 35.094 Q 305.801 34.254 304.751 33.714 L 304.751 33.714 L 304.751 33.714 Q 303.701 33.174 302.141 33.174 L 302.141 33.174 L 302.141 33.174 Q 300.641 33.174 299.561 33.684 L 299.561 33.684 L 299.561 33.684 Q 298.481 34.194 297.761 35.034 L 297.761 35.034 L 297.761 35.034 Q 297.041 35.874 296.651 36.984 L 296.651 36.984 L 296.651 36.984 Q 296.261 38.094 296.081 39.234 L 296.081 39.234 L 296.081 39.234 Z  M 321.941 42.414 L 321.941 42.414 L 321.941 42.414 Q 321.941 38.994 323.051 35.964 L 323.051 35.964 L 323.051 35.964 Q 324.161 32.934 326.261 30.684 L 326.261 30.684 L 326.261 30.684 Q 328.361 28.434 331.361 27.114 L 331.361 27.114 L 331.361 27.114 Q 334.361 25.794 338.201 25.794 L 338.201 25.794 L 338.201 25.794 Q 340.721 25.794 342.821 26.244 L 342.821 26.244 L 342.821 26.244 Q 344.921 26.694 346.901 27.534 L 346.901 27.534 L 345.041 34.674 L 345.041 34.674 Q 343.781 34.194 342.281 33.834 L 342.281 33.834 L 342.281 33.834 Q 340.781 33.474 338.921 33.474 L 338.921 33.474 L 338.921 33.474 Q 334.961 33.474 333.011 35.934 L 333.011 35.934 L 333.011 35.934 Q 331.061 38.394 331.061 42.414 L 331.061 42.414 L 331.061 42.414 Q 331.061 46.674 332.891 49.014 L 332.891 49.014 L 332.891 49.014 Q 334.721 51.354 339.281 51.354 L 339.281 51.354 L 339.281 51.354 Q 340.901 51.354 342.761 51.054 L 342.761 51.054 L 342.761 51.054 Q 344.621 50.754 346.181 50.094 L 346.181 50.094 L 347.441 57.414 L 347.441 57.414 Q 345.881 58.074 343.541 58.554 L 343.541 58.554 L 343.541 58.554 Q 341.201 59.034 338.381 59.034 L 338.381 59.034 L 338.381 59.034 Q 334.061 59.034 330.941 57.744 L 330.941 57.744 L 330.941 57.744 Q 327.821 56.454 325.811 54.234 L 325.811 54.234 L 325.811 54.234 Q 323.801 52.014 322.871 48.984 L 322.871 48.984 L 322.871 48.984 Q 321.941 45.954 321.941 42.414 Z  M 362.381 58.194 L 353.441 58.194 L 353.441 13.074 L 362.381 11.634 L 362.381 26.754 L 362.381 26.754 Q 363.281 26.454 364.691 26.184 L 364.691 26.184 L 364.691 26.184 Q 366.101 25.914 367.421 25.914 L 367.421 25.914 L 367.421 25.914 Q 371.261 25.914 373.811 26.964 L 373.811 26.964 L 373.811 26.964 Q 376.361 28.014 377.891 29.934 L 377.891 29.934 L 377.891 29.934 Q 379.421 31.854 380.051 34.494 L 380.051 34.494 L 380.051 34.494 Q 380.681 37.134 380.681 40.374 L 380.681 40.374 L 380.681 58.194 L 371.741 58.194 L 371.741 41.454 L 371.741 41.454 Q 371.741 37.134 370.631 35.334 L 370.631 35.334 L 370.631 35.334 Q 369.521 33.534 366.521 33.534 L 366.521 33.534 L 366.521 33.534 Q 365.321 33.534 364.271 33.744 L 364.271 33.744 L 364.271 33.744 Q 363.221 33.954 362.381 34.194 L 362.381 34.194 L 362.381 58.194 L 362.381 58.194 Z  M 77.801 54.174 L 77.801 54.174 L 77.801 54.174 Q 81.221 54.174 82.871 53.274 L 82.871 53.274 L 82.871 53.274 Q 84.521 52.374 84.521 50.394 L 84.521 50.394 L 84.521 50.394 Q 84.521 48.354 82.901 47.154 L 82.901 47.154 L 82.901 47.154 Q 81.281 45.954 77.561 44.454 L 77.561 44.454 L 77.561 44.454 Q 75.761 43.734 74.111 42.984 L 74.111 42.984 L 74.111 42.984 Q 72.461 42.234 71.261 41.214 L 71.261 41.214 L 71.261 41.214 Q 70.061 40.194 69.341 38.754 L 69.341 38.754 L 69.341 38.754 Q 68.621 37.314 68.621 35.214 L 68.621 35.214 L 68.621 35.214 Q 68.621 31.074 71.681 28.644 L 71.681 28.644 L 71.681 28.644 Q 74.741 26.214 80.021 26.214 L 80.021 26.214 L 80.021 26.214 Q 81.341 26.214 82.661 26.364 L 82.661 26.364 L 82.661 26.364 Q 83.981 26.514 85.121 26.724 L 85.121 26.724 L 85.121 26.724 Q 86.261 26.934 87.131 27.174 L 87.131 27.174 L 87.131 27.174 Q 88.001 27.414 88.481 27.594 L 88.481 27.594 L 87.461 32.394 L 87.461 32.394 Q 86.561 31.914 84.641 31.404 L 84.641 31.404 L 84.641 31.404 Q 82.721 30.894 80.021 30.894 L 80.021 30.894 L 80.021 30.894 Q 77.681 30.894 75.941 31.824 L 75.941 31.824 L 75.941 31.824 Q 74.201 32.754 74.201 34.734 L 74.201 34.734 L 74.201 34.734 Q 74.201 35.754 74.591 36.534 L 74.591 36.534 L 74.591 36.534 Q 74.981 37.314 75.791 37.944 L 75.791 37.944 L 75.791 37.944 Q 76.601 38.574 77.801 39.114 L 77.801 39.114 L 77.801 39.114 Q 79.001 39.654 80.681 40.254 L 80.681 40.254 L 80.681 40.254 Q 82.901 41.094 84.641 41.904 L 84.641 41.904 L 84.641 41.904 Q 86.381 42.714 87.611 43.794 L 87.611 43.794 L 87.611 43.794 Q 88.841 44.874 89.501 46.404 L 89.501 46.404 L 89.501 46.404 Q 90.161 47.934 90.161 50.154 L 90.161 50.154 L 90.161 50.154 Q 90.161 54.474 86.951 56.694 L 86.951 56.694 L 86.951 56.694 Q 83.741 58.914 77.801 58.914 L 77.801 58.914 L 77.801 58.914 Q 73.661 58.914 71.321 58.224 L 71.321 58.224 L 71.321 58.224 Q 68.981 57.534 68.141 57.174 L 68.141 57.174 L 69.161 52.374 L 69.161 52.374 Q 70.121 52.734 72.221 53.454 L 72.221 53.454 L 72.221 53.454 Q 74.321 54.174 77.801 54.174 Z  M 122.141 26.994 L 122.141 57.294 L 122.141 57.294 Q 120.221 57.774 117.071 58.314 L 117.071 58.314 L 117.071 58.314 Q 113.921 58.854 109.781 58.854 L 109.781 58.854 L 109.781 58.854 Q 106.181 58.854 103.721 57.804 L 103.721 57.804 L 103.721 57.804 Q 101.261 56.754 99.761 54.834 L 99.761 54.834 L 99.761 54.834 Q 98.261 52.914 97.601 50.304 L 97.601 50.304 L 97.601 50.304 Q 96.941 47.694 96.941 44.514 L 96.941 44.514 L 96.941 26.994 L 102.521 26.994 L 102.521 43.314 L 102.521 43.314 Q 102.521 49.014 104.321 51.474 L 104.321 51.474 L 104.321 51.474 Q 106.121 53.934 110.381 53.934 L 110.381 53.934 L 110.381 53.934 Q 111.281 53.934 112.241 53.874 L 112.241 53.874 L 112.241 53.874 Q 113.201 53.814 114.041 53.724 L 114.041 53.724 L 114.041 53.724 Q 114.881 53.634 115.571 53.544 L 115.571 53.544 L 115.571 53.544 Q 116.261 53.454 116.561 53.334 L 116.561 53.334 L 116.561 26.994 L 122.141 26.994 L 122.141 26.994 Z  M 139.001 54.174 L 139.001 54.174 L 139.001 54.174 Q 142.421 54.174 144.071 53.274 L 144.071 53.274 L 144.071 53.274 Q 145.721 52.374 145.721 50.394 L 145.721 50.394 L 145.721 50.394 Q 145.721 48.354 144.101 47.154 L 144.101 47.154 L 144.101 47.154 Q 142.481 45.954 138.761 44.454 L 138.761 44.454 L 138.761 44.454 Q 136.961 43.734 135.311 42.984 L 135.311 42.984 L 135.311 42.984 Q 133.661 42.234 132.461 41.214 L 132.461 41.214 L 132.461 41.214 Q 131.261 40.194 130.541 38.754 L 130.541 38.754 L 130.541 38.754 Q 129.821 37.314 129.821 35.214 L 129.821 35.214 L 129.821 35.214 Q 129.821 31.074 132.881 28.644 L 132.881 28.644 L 132.881 28.644 Q 135.941 26.214 141.221 26.214 L 141.221 26.214 L 141.221 26.214 Q 142.541 26.214 143.861 26.364 L 143.861 26.364 L 143.861 26.364 Q 145.181 26.514 146.321 26.724 L 146.321 26.724 L 146.321 26.724 Q 147.461 26.934 148.331 27.174 L 148.331 27.174 L 148.331 27.174 Q 149.201 27.414 149.681 27.594 L 149.681 27.594 L 148.661 32.394 L 148.661 32.394 Q 147.761 31.914 145.841 31.404 L 145.841 31.404 L 145.841 31.404 Q 143.921 30.894 141.221 30.894 L 141.221 30.894 L 141.221 30.894 Q 138.881 30.894 137.141 31.824 L 137.141 31.824 L 137.141 31.824 Q 135.401 32.754 135.401 34.734 L 135.401 34.734 L 135.401 34.734 Q 135.401 35.754 135.791 36.534 L 135.791 36.534 L 135.791 36.534 Q 136.181 37.314 136.991 37.944 L 136.991 37.944 L 136.991 37.944 Q 137.801 38.574 139.001 39.114 L 139.001 39.114 L 139.001 39.114 Q 140.201 39.654 141.881 40.254 L 141.881 40.254 L 141.881 40.254 Q 144.101 41.094 145.841 41.904 L 145.841 41.904 L 145.841 41.904 Q 147.581 42.714 148.811 43.794 L 148.811 43.794 L 148.811 43.794 Q 150.041 44.874 150.701 46.404 L 150.701 46.404 L 150.701 46.404 Q 151.361 47.934 151.361 50.154 L 151.361 50.154 L 151.361 50.154 Q 151.361 54.474 148.151 56.694 L 148.151 56.694 L 148.151 56.694 Q 144.941 58.914 139.001 58.914 L 139.001 58.914 L 139.001 58.914 Q 134.861 58.914 132.521 58.224 L 132.521 58.224 L 132.521 58.224 Q 130.181 57.534 129.341 57.174 L 129.341 57.174 L 130.361 52.374 L 130.361 52.374 Q 131.321 52.734 133.421 53.454 L 133.421 53.454 L 133.421 53.454 Q 135.521 54.174 139.001 54.174 Z  M 163.721 17.334 L 163.721 26.994 L 175.541 26.994 L 175.541 31.674 L 163.721 31.674 L 163.721 46.074 L 163.721 46.074 Q 163.721 48.414 164.081 49.944 L 164.081 49.944 L 164.081 49.944 Q 164.441 51.474 165.161 52.344 L 165.161 52.344 L 165.161 52.344 Q 165.881 53.214 166.961 53.574 L 166.961 53.574 L 166.961 53.574 Q 168.041 53.934 169.481 53.934 L 169.481 53.934 L 169.481 53.934 Q 172.001 53.934 173.531 53.364 L 173.531 53.364 L 173.531 53.364 Q 175.061 52.794 175.661 52.554 L 175.661 52.554 L 176.741 57.174 L 176.741 57.174 Q 175.901 57.594 173.801 58.224 L 173.801 58.224 L 173.801 58.224 Q 171.701 58.854 169.001 58.854 L 169.001 58.854 L 169.001 58.854 Q 165.821 58.854 163.751 58.044 L 163.751 58.044 L 163.751 58.044 Q 161.681 57.234 160.421 55.614 L 160.421 55.614 L 160.421 55.614 Q 159.161 53.994 158.651 51.624 L 158.651 51.624 L 158.651 51.624 Q 158.141 49.254 158.141 46.134 L 158.141 46.134 L 158.141 18.294 L 163.721 17.334 L 163.721 17.334 Z  M 193.181 54.174 L 193.181 54.174 L 193.181 54.174 Q 195.161 54.174 196.691 54.084 L 196.691 54.084 L 196.691 54.084 Q 198.221 53.994 199.241 53.754 L 199.241 53.754 L 199.241 44.454 L 199.241 44.454 Q 198.641 44.154 197.291 43.944 L 197.291 43.944 L 197.291 43.944 Q 195.941 43.734 194.021 43.734 L 194.021 43.734 L 194.021 43.734 Q 192.761 43.734 191.351 43.914 L 191.351 43.914 L 191.351 43.914 Q 189.941 44.094 188.771 44.664 L 188.771 44.664 L 188.771 44.664 Q 187.601 45.234 186.821 46.224 L 186.821 46.224 L 186.821 46.224 Q 186.041 47.214 186.041 48.834 L 186.041 48.834 L 186.041 48.834 Q 186.041 51.834 187.961 53.004 L 187.961 53.004 L 187.961 53.004 Q 189.881 54.174 193.181 54.174 Z  M 192.701 26.214 L 192.701 26.214 L 192.701 26.214 Q 196.061 26.214 198.371 27.084 L 198.371 27.084 L 198.371 27.084 Q 200.681 27.954 202.091 29.544 L 202.091 29.544 L 202.091 29.544 Q 203.501 31.134 204.101 33.324 L 204.101 33.324 L 204.101 33.324 Q 204.701 35.514 204.701 38.154 L 204.701 38.154 L 204.701 57.654 L 204.701 57.654 Q 203.981 57.774 202.691 57.984 L 202.691 57.984 L 202.691 57.984 Q 201.401 58.194 199.781 58.374 L 199.781 58.374 L 199.781 58.374 Q 198.161 58.554 196.271 58.704 L 196.271 58.704 L 196.271 58.704 Q 194.381 58.854 192.521 58.854 L 192.521 58.854 L 192.521 58.854 Q 189.881 58.854 187.661 58.314 L 187.661 58.314 L 187.661 58.314 Q 185.441 57.774 183.821 56.604 L 183.821 56.604 L 183.821 56.604 Q 182.201 55.434 181.301 53.514 L 181.301 53.514 L 181.301 53.514 Q 180.401 51.594 180.401 48.894 L 180.401 48.894 L 180.401 48.894 Q 180.401 46.314 181.451 44.454 L 181.451 44.454 L 181.451 44.454 Q 182.501 42.594 184.301 41.454 L 184.301 41.454 L 184.301 41.454 Q 186.101 40.314 188.501 39.774 L 188.501 39.774 L 188.501 39.774 Q 190.901 39.234 193.541 39.234 L 193.541 39.234 L 193.541 39.234 Q 194.381 39.234 195.281 39.324 L 195.281 39.324 L 195.281 39.324 Q 196.181 39.414 196.991 39.564 L 196.991 39.564 L 196.991 39.564 Q 197.801 39.714 198.401 39.834 L 198.401 39.834 L 198.401 39.834 Q 199.001 39.954 199.241 40.014 L 199.241 40.014 L 199.241 38.454 L 199.241 38.454 Q 199.241 37.074 198.941 35.724 L 198.941 35.724 L 198.941 35.724 Q 198.641 34.374 197.861 33.324 L 197.861 33.324 L 197.861 33.324 Q 197.081 32.274 195.731 31.644 L 195.731 31.644 L 195.731 31.644 Q 194.381 31.014 192.221 31.014 L 192.221 31.014 L 192.221 31.014 Q 189.461 31.014 187.391 31.404 L 187.391 31.404 L 187.391 31.404 Q 185.321 31.794 184.301 32.214 L 184.301 32.214 L 183.641 27.594 L 183.641 27.594 Q 184.721 27.114 187.241 26.664 L 187.241 26.664 L 187.241 26.664 Q 189.761 26.214 192.701 26.214 Z  M 219.521 26.994 L 219.521 58.194 L 213.941 58.194 L 213.941 26.994 L 219.521 26.994 L 219.521 26.994 Z  M 216.701 21.354 L 216.701 21.354 L 216.701 21.354 Q 215.201 21.354 214.151 20.364 L 214.151 20.364 L 214.151 20.364 Q 213.101 19.374 213.101 17.694 L 213.101 17.694 L 213.101 17.694 Q 213.101 16.014 214.151 15.024 L 214.151 15.024 L 214.151 15.024 Q 215.201 14.034 216.701 14.034 L 216.701 14.034 L 216.701 14.034 Q 218.201 14.034 219.251 15.024 L 219.251 15.024 L 219.251 15.024 Q 220.301 16.014 220.301 17.694 L 220.301 17.694 L 220.301 17.694 Q 220.301 19.374 219.251 20.364 L 219.251 20.364 L 219.251 20.364 Q 218.201 21.354 216.701 21.354 Z  M 229.121 58.194 L 229.121 27.894 L 229.121 27.894 Q 231.041 27.414 234.221 26.874 L 234.221 26.874 L 234.221 26.874 Q 237.401 26.334 241.541 26.334 L 241.541 26.334 L 241.541 26.334 Q 245.261 26.334 247.721 27.384 L 247.721 27.384 L 247.721 27.384 Q 250.181 28.434 251.651 30.324 L 251.651 30.324 L 251.651 30.324 Q 253.121 32.214 253.721 34.854 L 253.721 34.854 L 253.721 34.854 Q 254.321 37.494 254.321 40.674 L 254.321 40.674 L 254.321 58.194 L 248.741 58.194 L 248.741 41.874 L 248.741 41.874 Q 248.741 38.994 248.351 36.954 L 248.351 36.954 L 248.351 36.954 Q 247.961 34.914 247.061 33.654 L 247.061 33.654 L 247.061 33.654 Q 246.161 32.394 244.661 31.824 L 244.661 31.824 L 244.661 31.824 Q 243.161 31.254 240.941 31.254 L 240.941 31.254 L 240.941 31.254 Q 240.041 31.254 239.081 31.314 L 239.081 31.314 L 239.081 31.314 Q 238.121 31.374 237.251 31.464 L 237.251 31.464 L 237.251 31.464 Q 236.381 31.554 235.691 31.674 L 235.691 31.674 L 235.691 31.674 Q 235.001 31.794 234.701 31.854 L 234.701 31.854 L 234.701 58.194 L 229.121 58.194 L 229.121 58.194 Z " fill="rgb(0,0,0)"/><g><g><path d=" M 33.167 0.005 C 33.164 0.003 33.162 0.002 33.16 0" fill="rgb(151,217,46)"/><path d=" M 11.421 67.209 C 39.712 72.658 65.531 38.174 50.048 13.878 C 45.852 7.294 35.578 0.681 33.167 0.005 C 36.828 13.931 36.194 41.495 11.421 67.209 Z " fill="none"/><path d=" M 31.641 28.861 Q 31.641 28.879 31.641 28.898" fill="rgb(151,217,46)"/><path d=" M 32.16 0 C 28.381 4.15 28.172 6.646 22.476 10.633 C 13.192 17.131 -2.018 28.671 5.198 64.747 Q 3.679 67.278 0 69.864 C 0.095 71.118 0.158 70.243 0.202 73.069 C 13.763 63.239 23.909 48.503 30.641 28.861 Q 35.203 12.147 32.16 0 Z " fill="rgb(151,217,46)"/><path d=" M 21.061 57.18 Q 33.683 57.18 42.256 57.18 Q 34.503 64.734 23.671 67.2 Q 20.706 67.2 12.84 67.2 Q 17.082 62.678 21.061 57.18 Z " fill="rgb(74,134,232)"/><path d=" M 29.303 42.859 Q 42.814 42.859 52.134 42.859 Q 49.212 49.309 46.212 52.944 Q 34.399 52.894 23.954 52.894 Q 26.887 48.14 29.303 42.859 Z " fill="rgb(74,134,232)"/><path d=" M 34.056 28.601 Q 45.709 28.601 54.667 28.601 Q 54.745 33.445 53.537 38.549 Q 42.145 38.549 31.134 38.549 Q 32.771 34.263 34.056 28.601 Z " fill="rgb(74,134,232)"/><path d=" M 33.096 0.037 Q 33.188 0.037 33.284 0.037 Q 39.83 3.069 47.037 10.065 Q 40.337 10.065 35.7 10.065 Q 35.017 4.876 33.096 0.037 Z " fill="rgb(74,134,232)"/><path d=" M 35.802 14.214 Q 42.728 14.214 50.303 14.214 Q 52.661 17.964 54.285 24.359 Q 46.904 24.359 34.959 24.359 Q 35.905 18.668 35.802 14.214 Z " fill="rgb(74,134,232)"/></g></g></g></g></svg>